<svg width="145" height="145" viewBox="0 0 145 145" fill="none" xmlns="http://www.w3.org/2000/svg">
<circle cx="72.5" cy="72.5" r="72.5" fill="url(#paint0_linear_1_551)"/>
<g clip-path="url(#clip0_1_551)">
<path d="M81.875 56.0938H51.4062C48.8281 56.0938 46.7188 58.2031 46.7188 60.7812V105.312H86.5625V60.7812C86.5625 58.2031 84.4531 56.0938 81.875 56.0938Z" fill="#E8E8E8"/>
<path d="M105.312 77.1875H65.4688C64.1797 77.1875 63.125 78.2422 63.125 79.5312V105.312H107.656V79.5312C107.656 78.2422 106.602 77.1875 105.312 77.1875ZM43.2031 77.1875C42.5 77.1875 41.7969 77.6562 41.3281 78.125L37.9297 83.1641C37.5781 83.75 37.3438 84.8047 37.3438 85.3906V105.312H46.7188V77.1875H43.2031Z" fill="#62727A"/>
<path d="M49.0625 97.1094H60.7812V105.312H49.0625V97.1094Z" fill="#B4D7EE"/>
<path d="M108.828 105.312H36.1719C35.4687 105.312 35 105.898 35 106.484V108.828C35 109.531 35.4687 110 36.1719 110H108.828C109.414 110 110 109.531 110 108.828V106.484C110 105.898 109.414 105.312 108.828 105.312Z" fill="#62727A"/>
<path d="M51.4062 75.4297C51.4062 75.7813 51.1719 76.0156 50.8203 76.0156H49.6484C49.2969 76.0156 49.0625 75.7813 49.0625 75.4297V69.5703C49.0625 69.2187 49.2969 68.9844 49.6484 68.9844H50.8203C51.1719 68.9844 51.4062 69.2187 51.4062 69.5703V75.4297ZM56.0938 75.4297C56.0938 75.7813 55.8594 76.0156 55.5078 76.0156H54.3359C53.9844 76.0156 53.75 75.7813 53.75 75.4297V69.5703C53.75 69.2187 53.9844 68.9844 54.3359 68.9844H55.5078C55.8594 68.9844 56.0938 69.2187 56.0938 69.5703V75.4297ZM60.7812 75.4297C60.7812 75.7813 60.5469 76.0156 60.1953 76.0156H59.0234C58.6719 76.0156 58.4375 75.7813 58.4375 75.4297V69.5703C58.4375 69.2187 58.6719 68.9844 59.0234 68.9844H60.1953C60.5469 68.9844 60.7812 69.2187 60.7812 69.5703V75.4297ZM65.4688 75.4297C65.4688 75.7813 65.2344 76.0156 64.8828 76.0156H63.7109C63.3594 76.0156 63.125 75.7813 63.125 75.4297V69.5703C63.125 69.2187 63.3594 68.9844 63.7109 68.9844H64.8828C65.2344 68.9844 65.4688 69.2187 65.4688 69.5703V75.4297ZM70.1562 75.4297C70.1562 75.7813 69.9219 76.0156 69.5703 76.0156H68.3984C68.0469 76.0156 67.8125 75.7813 67.8125 75.4297V69.5703C67.8125 69.2187 68.0469 68.9844 68.3984 68.9844H69.5703C69.9219 68.9844 70.1562 69.2187 70.1562 69.5703V75.4297ZM51.4062 84.8047C51.4062 85.1563 51.1719 85.3906 50.8203 85.3906H49.6484C49.2969 85.3906 49.0625 85.1563 49.0625 84.8047V78.9453C49.0625 78.5937 49.2969 78.3594 49.6484 78.3594H50.8203C51.1719 78.3594 51.4062 78.5937 51.4062 78.9453V84.8047ZM56.0938 84.8047C56.0938 85.1563 55.8594 85.3906 55.5078 85.3906H54.3359C53.9844 85.3906 53.75 85.1563 53.75 84.8047V78.9453C53.75 78.5937 53.9844 78.3594 54.3359 78.3594H55.5078C55.8594 78.3594 56.0938 78.5937 56.0938 78.9453V84.8047ZM60.7812 84.8047C60.7812 85.1563 60.5469 85.3906 60.1953 85.3906H59.0234C58.6719 85.3906 58.4375 85.1563 58.4375 84.8047V78.9453C58.4375 78.5937 58.6719 78.3594 59.0234 78.3594H60.1953C60.5469 78.3594 60.7812 78.5937 60.7812 78.9453V84.8047ZM51.4062 94.1797C51.4062 94.5313 51.1719 94.7656 50.8203 94.7656H49.6484C49.2969 94.7656 49.0625 94.5313 49.0625 94.1797V88.3203C49.0625 87.9687 49.2969 87.7344 49.6484 87.7344H50.8203C51.1719 87.7344 51.4062 87.9687 51.4062 88.3203V94.1797ZM56.0938 94.1797C56.0938 94.5313 55.8594 94.7656 55.5078 94.7656H54.3359C53.9844 94.7656 53.75 94.5313 53.75 94.1797V88.3203C53.75 87.9687 53.9844 87.7344 54.3359 87.7344H55.5078C55.8594 87.7344 56.0938 87.9687 56.0938 88.3203V94.1797ZM60.7812 94.1797C60.7812 94.5313 60.5469 94.7656 60.1953 94.7656H59.0234C58.6719 94.7656 58.4375 94.5313 58.4375 94.1797V88.3203C58.4375 87.9687 58.6719 87.7344 59.0234 87.7344H60.1953C60.5469 87.7344 60.7812 87.9687 60.7812 88.3203V94.1797ZM72.5 86.5625H107.656V105.312H72.5V86.5625ZM43.2031 89.4922C43.2031 89.8438 42.9688 90.0781 42.6172 90.0781H41.4453C41.0937 90.0781 40.8594 89.8438 40.8594 89.4922V83.6328C40.8594 83.2812 41.0937 83.0469 41.4453 83.0469H42.6172C42.9688 83.0469 43.2031 83.2812 43.2031 83.6328V89.4922ZM43.2031 100.039C43.2031 100.391 42.9688 100.625 42.6172 100.625H41.4453C41.0937 100.625 40.8594 100.391 40.8594 100.039V94.1797C40.8594 93.8281 41.0937 93.5938 41.4453 93.5938H42.6172C42.9688 93.5938 43.2031 93.8281 43.2031 94.1797V100.039Z" fill="#B4D7EE"/>
<path d="M59.6094 97.1094H49.0625V105.312H50.2344V98.2812H54.3359V105.312H55.5078V98.2812H59.6094V105.312H60.7812V97.1094H59.6094Z" fill="white"/>
<path d="M55.5078 100.625H54.3359C53.9844 100.625 53.75 100.859 53.75 101.211V102.383C53.75 102.734 53.9844 102.969 54.3359 102.969H55.5078C55.8594 102.969 56.0938 102.734 56.0938 102.383V101.211C56.0938 100.859 55.8594 100.625 55.5078 100.625Z" fill="white"/>
<path d="M50.2344 105.312H59.6094V107.656H50.2344V105.312Z" fill="#B2C1C0"/>
<path d="M50.2344 107.656H59.6094V110H50.2344V107.656Z" fill="#E8E8E8"/>
<path d="M73.6719 86.5625H107.656V84.2188H71.3281C70.7422 84.2188 70.1562 84.8047 70.1562 85.3906V105.312H72.5V101.797C72.5 101.211 73.0859 100.625 73.6719 100.625H107.656V98.2812H73.6719C73.0859 98.2812 72.5 97.8125 72.5 97.1094V94.7656C72.5 94.1797 73.0859 93.5938 73.6719 93.5938H107.656V91.25H73.6719C73.0859 91.25 72.5 90.6641 72.5 90.0781V87.7344C72.5 87.1484 73.0859 86.5625 73.6719 86.5625Z" fill="white"/>
<path d="M51.4062 66.0547C51.4062 66.4063 51.1719 66.6406 50.8203 66.6406H49.6484C49.2969 66.6406 49.0625 66.4063 49.0625 66.0547V60.1953C49.0625 59.8437 49.2969 59.6094 49.6484 59.6094H50.8203C51.1719 59.6094 51.4062 59.8437 51.4062 60.1953V66.0547ZM56.0938 66.0547C56.0938 66.4063 55.8594 66.6406 55.5078 66.6406H54.3359C53.9844 66.6406 53.75 66.4063 53.75 66.0547V60.1953C53.75 59.8437 53.9844 59.6094 54.3359 59.6094H55.5078C55.8594 59.6094 56.0938 59.8437 56.0938 60.1953V66.0547ZM60.7812 66.0547C60.7812 66.4063 60.5469 66.6406 60.1953 66.6406H59.0234C58.6719 66.6406 58.4375 66.4063 58.4375 66.0547V60.1953C58.4375 59.8437 58.6719 59.6094 59.0234 59.6094H60.1953C60.5469 59.6094 60.7812 59.8437 60.7812 60.1953V66.0547ZM65.4688 66.0547C65.4688 66.4063 65.2344 66.6406 64.8828 66.6406H63.7109C63.3594 66.6406 63.125 66.4063 63.125 66.0547V60.1953C63.125 59.8437 63.3594 59.6094 63.7109 59.6094H64.8828C65.2344 59.6094 65.4688 59.8437 65.4688 60.1953V66.0547ZM70.1562 66.0547C70.1562 66.4063 69.9219 66.6406 69.5703 66.6406H68.3984C68.0469 66.6406 67.8125 66.4063 67.8125 66.0547V60.1953C67.8125 59.8437 68.0469 59.6094 68.3984 59.6094H69.5703C69.9219 59.6094 70.1562 59.8437 70.1562 60.1953V66.0547ZM74.8438 75.4297C74.8438 75.7813 74.6094 76.0156 74.2578 76.0156H73.0859C72.7344 76.0156 72.5 75.7813 72.5 75.4297V69.5703C72.5 69.2187 72.7344 68.9844 73.0859 68.9844H74.2578C74.6094 68.9844 74.8438 69.2187 74.8438 69.5703V75.4297ZM74.8438 66.0547C74.8438 66.4063 74.6094 66.6406 74.2578 66.6406H73.0859C72.7344 66.6406 72.5 66.4063 72.5 66.0547V60.1953C72.5 59.8437 72.7344 59.6094 73.0859 59.6094H74.2578C74.6094 59.6094 74.8438 59.8437 74.8438 60.1953V66.0547ZM79.5312 75.4297C79.5312 75.7813 79.2969 76.0156 78.9453 76.0156H77.7734C77.4219 76.0156 77.1875 75.7813 77.1875 75.4297V69.5703C77.1875 69.2187 77.4219 68.9844 77.7734 68.9844H78.9453C79.2969 68.9844 79.5312 69.2187 79.5312 69.5703V75.4297ZM79.5312 66.0547C79.5312 66.4063 79.2969 66.6406 78.9453 66.6406H77.7734C77.4219 66.6406 77.1875 66.4063 77.1875 66.0547V60.1953C77.1875 59.8437 77.4219 59.6094 77.7734 59.6094H78.9453C79.2969 59.6094 79.5312 59.8437 79.5312 60.1953V66.0547ZM84.2188 75.4297C84.2188 75.7813 83.9844 76.0156 83.6328 76.0156H82.4609C82.1094 76.0156 81.875 75.7813 81.875 75.4297V69.5703C81.875 69.2187 82.1094 68.9844 82.4609 68.9844H83.6328C83.9844 68.9844 84.2188 69.2187 84.2188 69.5703V75.4297ZM84.2188 66.0547C84.2188 66.4063 83.9844 66.6406 83.6328 66.6406H82.4609C82.1094 66.6406 81.875 66.4063 81.875 66.0547V60.1953C81.875 59.8437 82.1094 59.6094 82.4609 59.6094H83.6328C83.9844 59.6094 84.2188 59.8437 84.2188 60.1953V66.0547Z" fill="#B4D7EE"/>
<path d="M57.2656 44.375H76.0156V56.0938H57.2656V44.375Z" fill="#B2C1C0"/>
<path d="M66.6406 53.75C71.8183 53.75 76.0156 49.5527 76.0156 44.375C76.0156 39.1973 71.8183 35 66.6406 35C61.463 35 57.2656 39.1973 57.2656 44.375C57.2656 49.5527 61.463 53.75 66.6406 53.75Z" fill="#E8E8E8"/>
<path d="M72.5 42.0312H68.9844V38.5156C68.9844 37.9297 68.3984 37.3438 67.8125 37.3438H65.4688C64.8828 37.3438 64.2969 37.9297 64.2969 38.5156V42.0312H60.7812C60.1953 42.0312 59.6094 42.5 59.6094 43.2031V45.5469C59.6094 46.25 60.1953 46.7188 60.7812 46.7188H64.2969V50.2344C64.2969 50.9375 64.8828 51.4062 65.4688 51.4062H67.8125C68.3984 51.4062 68.9844 50.9375 68.9844 50.2344V46.7188H72.5C73.0859 46.7188 73.6719 46.25 73.6719 45.5469V43.2031C73.6719 42.5 73.0859 42.0312 72.5 42.0312Z" fill="#F15744"/>
</g>
<defs>
<linearGradient id="paint0_linear_1_551" x1="72.5" y1="0" x2="72.5" y2="145" gradientUnits="userSpaceOnUse">
<stop stop-color="#E1ECF4"/>
<stop offset="1" stop-color="#F4FAFF" stop-opacity="0"/>
</linearGradient>
<clipPath id="clip0_1_551">
<rect width="75" height="75" fill="white" transform="translate(35 35)"/>
</clipPath>
</defs>
</svg>
